<svg width="268" height="201" viewBox="0 0 268 201" fill="none" xmlns="http://www.w3.org/2000/svg">
<g opacity="0.9">
<mask id="mask0" style="mask-type:alpha" maskUnits="userSpaceOnUse" x="-51" y="-89" width="319" height="290">
<ellipse cx="108.5" cy="55.8848" rx="143.777" ry="158.495" transform="rotate(-90.4019 108.5 55.8848)" fill="#006665"/>
</mask>
<g mask="url(#mask0)">
<ellipse cx="0.999521" cy="195.568" rx="6.30178" ry="6.94691" transform="rotate(-90.4019 0.999521 195.568)" fill="#006665" fill-opacity="0.24"/>
<ellipse cx="44.0695" cy="195.267" rx="6.30178" ry="6.94691" transform="rotate(-90.4019 44.0695 195.267)" fill="#006665" fill-opacity="0.24"/>
<ellipse cx="87.1386" cy="194.964" rx="6.30178" ry="6.94691" transform="rotate(-90.4019 87.1386 194.964)" fill="#006665" fill-opacity="0.24"/>
<ellipse cx="130.209" cy="194.661" rx="6.30178" ry="6.94691" transform="rotate(-90.4019 130.209 194.661)" fill="#006665" fill-opacity="0.24"/>
<ellipse cx="173.279" cy="194.36" rx="6.30178" ry="6.94691" transform="rotate(-90.4019 173.279 194.36)" fill="#006665" fill-opacity="0.24"/>
<ellipse cx="216.348" cy="194.058" rx="6.30178" ry="6.94691" transform="rotate(-90.4019 216.348 194.058)" fill="#006665" fill-opacity="0.24"/>
<ellipse cx="259.418" cy="193.755" rx="6.30178" ry="6.94691" transform="rotate(-90.4019 259.418 193.755)" fill="#006665" fill-opacity="0.24"/>
<ellipse cx="0.751963" cy="160.28" rx="6.30178" ry="6.94691" transform="rotate(-90.4019 0.751963 160.28)" fill="#006665" fill-opacity="0.24"/>
<ellipse cx="43.822" cy="159.977" rx="6.30178" ry="6.94691" transform="rotate(-90.4019 43.822 159.977)" fill="#006665" fill-opacity="0.24"/>
<ellipse cx="86.891" cy="159.674" rx="6.30178" ry="6.94691" transform="rotate(-90.4019 86.891 159.674)" fill="#006665" fill-opacity="0.24"/>
<ellipse cx="129.961" cy="159.372" rx="6.30178" ry="6.94691" transform="rotate(-90.4019 129.961 159.372)" fill="#006665" fill-opacity="0.24"/>
<ellipse cx="173.031" cy="159.07" rx="6.30178" ry="6.94691" transform="rotate(-90.4019 173.031 159.07)" fill="#006665" fill-opacity="0.24"/>
<ellipse cx="216.101" cy="158.768" rx="6.30178" ry="6.94691" transform="rotate(-90.4019 216.101 158.768)" fill="#006665" fill-opacity="0.24"/>
<ellipse cx="259.171" cy="158.466" rx="6.30178" ry="6.94691" transform="rotate(-90.4019 259.171 158.466)" fill="#006665" fill-opacity="0.24"/>
<ellipse cx="0.504404" cy="124.989" rx="6.30178" ry="6.94691" transform="rotate(-90.4019 0.504404 124.989)" fill="#006665" fill-opacity="0.24"/>
<ellipse cx="43.5744" cy="124.688" rx="6.30178" ry="6.94691" transform="rotate(-90.4019 43.5744 124.688)" fill="#006665" fill-opacity="0.24"/>
<ellipse cx="86.6434" cy="124.386" rx="6.30178" ry="6.94691" transform="rotate(-90.4019 86.6434 124.386)" fill="#006665" fill-opacity="0.24"/>
<ellipse cx="129.714" cy="124.083" rx="6.30178" ry="6.94691" transform="rotate(-90.4019 129.714 124.083)" fill="#006665" fill-opacity="0.24"/>
<ellipse cx="172.783" cy="123.782" rx="6.30178" ry="6.94691" transform="rotate(-90.4019 172.783 123.782)" fill="#006665" fill-opacity="0.24"/>
<ellipse cx="215.853" cy="123.48" rx="6.30178" ry="6.94691" transform="rotate(-90.4019 215.853 123.48)" fill="#006665" fill-opacity="0.24"/>
<ellipse cx="258.923" cy="123.177" rx="6.30178" ry="6.94691" transform="rotate(-90.4019 258.923 123.177)" fill="#006665" fill-opacity="0.24"/>
<ellipse cx="0.256845" cy="89.7014" rx="6.30178" ry="6.94691" transform="rotate(-90.4019 0.256845 89.7014)" fill="#006665" fill-opacity="0.24"/>
<ellipse cx="43.3269" cy="89.3987" rx="6.30178" ry="6.94691" transform="rotate(-90.4019 43.3269 89.3987)" fill="#006665" fill-opacity="0.24"/>
<ellipse cx="86.3959" cy="89.0959" rx="6.30178" ry="6.94691" transform="rotate(-90.4019 86.3959 89.0959)" fill="#006665" fill-opacity="0.24"/>
<ellipse cx="129.466" cy="88.7952" rx="6.30178" ry="6.94691" transform="rotate(-90.4019 129.466 88.7952)" fill="#006665" fill-opacity="0.24"/>
<ellipse cx="172.536" cy="88.4924" rx="6.30178" ry="6.94691" transform="rotate(-90.4019 172.536 88.4924)" fill="#006665" fill-opacity="0.24"/>
<ellipse cx="215.606" cy="88.1897" rx="6.30178" ry="6.94691" transform="rotate(-90.4019 215.606 88.1897)" fill="#006665" fill-opacity="0.24"/>
<ellipse cx="258.675" cy="87.8889" rx="6.30178" ry="6.94691" transform="rotate(-90.4019 258.675 87.8889)" fill="#006665" fill-opacity="0.24"/>
<ellipse cx="0.00928686" cy="54.4114" rx="6.30178" ry="6.94691" transform="rotate(-90.4019 0.00928686 54.4114)" fill="#006665" fill-opacity="0.24"/>
<ellipse cx="43.0795" cy="54.1096" rx="6.30178" ry="6.94691" transform="rotate(-90.4019 43.0795 54.1096)" fill="#006665" fill-opacity="0.24"/>
<ellipse cx="86.1483" cy="53.8078" rx="6.30178" ry="6.94691" transform="rotate(-90.4019 86.1483 53.8078)" fill="#006665" fill-opacity="0.24"/>
<ellipse cx="129.219" cy="53.5051" rx="6.30178" ry="6.94691" transform="rotate(-90.4019 129.219 53.5051)" fill="#006665" fill-opacity="0.24"/>
<ellipse cx="172.288" cy="53.2034" rx="6.30178" ry="6.94691" transform="rotate(-90.4019 172.288 53.2034)" fill="#006665" fill-opacity="0.24"/>
<ellipse cx="215.358" cy="52.9016" rx="6.30178" ry="6.94691" transform="rotate(-90.4019 215.358 52.9016)" fill="#006665" fill-opacity="0.24"/>
<ellipse cx="258.428" cy="52.5989" rx="6.30178" ry="6.94691" transform="rotate(-90.4019 258.428 52.5989)" fill="#006665" fill-opacity="0.24"/>
<ellipse cx="-0.238272" cy="19.1223" rx="6.30178" ry="6.94691" transform="rotate(-90.4019 -0.238272 19.1223)" fill="#006665" fill-opacity="0.24"/>
<ellipse cx="42.8319" cy="18.8205" rx="6.30178" ry="6.94691" transform="rotate(-90.4019 42.8319 18.8205)" fill="#006665" fill-opacity="0.24"/>
<ellipse cx="85.9008" cy="18.5178" rx="6.30178" ry="6.94691" transform="rotate(-90.4019 85.9008 18.5178)" fill="#006665" fill-opacity="0.24"/>
<ellipse cx="128.971" cy="18.217" rx="6.30178" ry="6.94691" transform="rotate(-90.4019 128.971 18.217)" fill="#006665" fill-opacity="0.24"/>
<ellipse cx="172.041" cy="17.9143" rx="6.30178" ry="6.94691" transform="rotate(-90.4019 172.041 17.9143)" fill="#006665" fill-opacity="0.24"/>
<ellipse cx="215.111" cy="17.6116" rx="6.30178" ry="6.94691" transform="rotate(-90.4019 215.111 17.6116)" fill="#006665" fill-opacity="0.24"/>
<ellipse cx="258.18" cy="17.3108" rx="6.30178" ry="6.94691" transform="rotate(-90.4019 258.18 17.3108)" fill="#006665" fill-opacity="0.24"/>
</g>
</g>
</svg>
