<svg width="885" height="784" viewBox="0 0 885 784" fill="none" xmlns="http://www.w3.org/2000/svg">
<path d="M514.592 161.793C443.707 128.38 358.858 126.112 276.589 155.433C194.319 184.754 120.526 243.56 69.5959 320.388L211.854 408.361C235.619 372.512 270.052 345.072 308.44 331.391C346.828 317.709 386.42 318.767 419.496 334.358L514.592 161.793Z" fill="#69A3A2"/>
<path d="M27.6284 372.284C-9.22988 441.884 -16.0041 526.251 8.62653 608.936C33.2572 691.621 87.527 766.698 160.856 819.528L255.531 680.436C221.315 655.784 195.992 620.752 184.499 582.17C173.006 543.588 176.167 504.221 193.365 471.744L27.6284 372.284Z" fill="#69A3A2"/>
<path d="M203.506 876.499C271.089 916.938 354.987 928.105 438.844 907.821C522.702 887.538 600.507 837.258 657.092 766.786L523.127 664.983C496.724 697.866 460.419 721.328 421.29 730.792C382.161 740.257 343.012 735.046 311.477 716.177L203.506 876.499Z" fill="#69A3A2"/>
</svg>
