<svg width="230" height="229" viewBox="0 0 230 229" fill="none" xmlns="http://www.w3.org/2000/svg">
<mask id="mask0" style="mask-type:alpha" maskUnits="userSpaceOnUse" x="-54" y="-55" width="284" height="284">
<circle cx="87.9531" cy="86.9531" r="141.953" fill="white" fill-opacity="0.5"/>
</mask>
<g mask="url(#mask0)">
<circle cx="20.4728" cy="28.3727" r="6.22186" fill="#EFDBCD"/>
<circle cx="20.4728" cy="66.9484" r="6.22186" fill="#EFDBCD"/>
<circle cx="20.4728" cy="105.524" r="6.22186" fill="#EFDBCD"/>
<circle cx="20.4728" cy="144.099" r="6.22186" fill="#EFDBCD"/>
<circle cx="20.4728" cy="182.675" r="6.22186" fill="#EFDBCD"/>
<circle cx="20.4728" cy="221.251" r="6.22186" fill="#EFDBCD"/>
<circle cx="55.3152" cy="28.3727" r="6.22186" fill="#EFDBCD"/>
<circle cx="55.3152" cy="66.9484" r="6.22186" fill="#EFDBCD"/>
<circle cx="55.3152" cy="105.524" r="6.22186" fill="#EFDBCD"/>
<circle cx="55.3152" cy="144.099" r="6.22186" fill="#EFDBCD"/>
<circle cx="55.3152" cy="182.675" r="6.22186" fill="#EFDBCD"/>
<circle cx="55.3152" cy="221.251" r="6.22186" fill="#EFDBCD"/>
<circle cx="90.1576" cy="28.3727" r="6.22186" fill="#EFDBCD"/>
<circle cx="90.1576" cy="66.9484" r="6.22186" fill="#EFDBCD"/>
<circle cx="90.1576" cy="105.524" r="6.22186" fill="#EFDBCD"/>
<circle cx="90.1576" cy="144.099" r="6.22186" fill="#EFDBCD"/>
<circle cx="90.1576" cy="182.675" r="6.22186" fill="#EFDBCD"/>
<circle cx="90.1576" cy="221.251" r="6.22186" fill="#EFDBCD"/>
<circle cx="125" cy="28.3727" r="6.22186" fill="#EFDBCD"/>
<circle cx="125" cy="66.9484" r="6.22186" fill="#EFDBCD"/>
<circle cx="125" cy="105.524" r="6.22186" fill="#EFDBCD"/>
<circle cx="125" cy="144.099" r="6.22186" fill="#EFDBCD"/>
<circle cx="125" cy="182.675" r="6.22186" fill="#EFDBCD"/>
<circle cx="125" cy="221.251" r="6.22186" fill="#EFDBCD"/>
<circle cx="159.842" cy="28.3727" r="6.22186" fill="#EFDBCD"/>
<circle cx="159.842" cy="66.9484" r="6.22186" fill="#EFDBCD"/>
<circle cx="159.842" cy="105.524" r="6.22186" fill="#EFDBCD"/>
<circle cx="159.842" cy="144.099" r="6.22186" fill="#EFDBCD"/>
<circle cx="159.842" cy="182.675" r="6.22186" fill="#EFDBCD"/>
<circle cx="159.842" cy="221.251" r="6.22186" fill="#EFDBCD"/>
<circle cx="194.685" cy="28.3727" r="6.22186" fill="#EFDBCD"/>
<circle cx="194.685" cy="66.9484" r="6.22186" fill="#EFDBCD"/>
<circle cx="194.685" cy="105.524" r="6.22186" fill="#EFDBCD"/>
<circle cx="194.685" cy="144.099" r="6.22186" fill="#EFDBCD"/>
<circle cx="194.685" cy="182.675" r="6.22186" fill="#EFDBCD"/>
<circle cx="194.685" cy="221.251" r="6.22186" fill="#EFDBCD"/>
<circle cx="229.527" cy="28.3727" r="6.22186" fill="#EFDBCD"/>
<circle cx="229.527" cy="66.9484" r="6.22186" fill="#EFDBCD"/>
<circle cx="229.527" cy="105.524" r="6.22186" fill="#EFDBCD"/>
<circle cx="229.527" cy="144.099" r="6.22186" fill="#EFDBCD"/>
<circle cx="229.527" cy="182.675" r="6.22186" fill="#EFDBCD"/>
<circle cx="229.527" cy="221.251" r="6.22186" fill="#EFDBCD"/>
</g>
</svg>
