<svg width="197" height="253" viewBox="0 0 197 253" fill="none" xmlns="http://www.w3.org/2000/svg">
<mask id="mask0" style="mask-type:alpha" maskUnits="userSpaceOnUse" x="0" y="0" width="276" height="253">
<ellipse cx="138" cy="126.5" rx="138" ry="126.5" fill="#006665" fill-opacity="0.54"/>
</mask>
<g mask="url(#mask0)">
<ellipse cx="4.65601" cy="5.54454" rx="6.04859" ry="5.54454" fill="#418D8C"/>
<ellipse cx="4.65504" cy="39.9215" rx="6.04859" ry="5.54454" fill="#418D8C"/>
<ellipse cx="4.65504" cy="74.2965" rx="6.04859" ry="5.54454" fill="#418D8C"/>
<ellipse cx="4.65504" cy="108.673" rx="6.04859" ry="5.54454" fill="#418D8C"/>
<ellipse cx="4.65504" cy="143.048" rx="6.04859" ry="5.54454" fill="#418D8C"/>
<ellipse cx="4.65504" cy="177.425" rx="6.04859" ry="5.54454" fill="#418D8C"/>
<ellipse cx="4.65504" cy="211.8" rx="6.04859" ry="5.54454" fill="#418D8C"/>
<ellipse cx="4.65504" cy="246.177" rx="6.04859" ry="5.54454" fill="#418D8C"/>
<ellipse cx="38.5271" cy="5.54454" rx="6.04859" ry="5.54454" fill="#418D8C"/>
<ellipse cx="38.5271" cy="39.9215" rx="6.04859" ry="5.54454" fill="#418D8C"/>
<ellipse cx="38.5271" cy="74.2965" rx="6.04859" ry="5.54454" fill="#418D8C"/>
<ellipse cx="38.5271" cy="108.673" rx="6.04859" ry="5.54454" fill="#418D8C"/>
<ellipse cx="38.5271" cy="143.048" rx="6.04859" ry="5.54454" fill="#418D8C"/>
<ellipse cx="38.5271" cy="177.425" rx="6.04859" ry="5.54454" fill="#418D8C"/>
<ellipse cx="38.5271" cy="211.8" rx="6.04859" ry="5.54454" fill="#418D8C"/>
<ellipse cx="38.5271" cy="246.177" rx="6.04859" ry="5.54454" fill="#418D8C"/>
<ellipse cx="72.4002" cy="5.54454" rx="6.04859" ry="5.54454" fill="#418D8C"/>
<ellipse cx="72.3992" cy="39.9215" rx="6.04859" ry="5.54454" fill="#418D8C"/>
<ellipse cx="72.3992" cy="74.2965" rx="6.04859" ry="5.54454" fill="#418D8C"/>
<ellipse cx="72.3992" cy="108.673" rx="6.04859" ry="5.54454" fill="#418D8C"/>
<ellipse cx="72.3992" cy="143.048" rx="6.04859" ry="5.54454" fill="#418D8C"/>
<ellipse cx="72.3992" cy="177.425" rx="6.04859" ry="5.54454" fill="#418D8C"/>
<ellipse cx="72.3992" cy="211.8" rx="6.04859" ry="5.54454" fill="#418D8C"/>
<ellipse cx="72.3992" cy="246.177" rx="6.04859" ry="5.54454" fill="#418D8C"/>
<ellipse cx="106.272" cy="5.54454" rx="6.04859" ry="5.54454" fill="#418D8C"/>
<ellipse cx="106.271" cy="39.9215" rx="6.04859" ry="5.54454" fill="#418D8C"/>
<ellipse cx="106.271" cy="74.2965" rx="6.04859" ry="5.54454" fill="#418D8C"/>
<ellipse cx="106.271" cy="108.673" rx="6.04859" ry="5.54454" fill="#418D8C"/>
<ellipse cx="106.271" cy="143.048" rx="6.04859" ry="5.54454" fill="#418D8C"/>
<ellipse cx="106.271" cy="177.425" rx="6.04859" ry="5.54454" fill="#418D8C"/>
<ellipse cx="106.271" cy="211.8" rx="6.04859" ry="5.54454" fill="#418D8C"/>
<ellipse cx="106.271" cy="246.177" rx="6.04859" ry="5.54454" fill="#418D8C"/>
<ellipse cx="140.144" cy="5.54454" rx="6.04859" ry="5.54454" fill="#418D8C"/>
<ellipse cx="140.144" cy="39.9215" rx="6.04859" ry="5.54454" fill="#418D8C"/>
<ellipse cx="140.144" cy="74.2965" rx="6.04859" ry="5.54454" fill="#418D8C"/>
<ellipse cx="140.144" cy="108.673" rx="6.04859" ry="5.54454" fill="#418D8C"/>
<ellipse cx="140.144" cy="143.048" rx="6.04859" ry="5.54454" fill="#418D8C"/>
<ellipse cx="140.144" cy="177.425" rx="6.04859" ry="5.54454" fill="#418D8C"/>
<ellipse cx="140.144" cy="211.8" rx="6.04859" ry="5.54454" fill="#418D8C"/>
<ellipse cx="140.144" cy="246.177" rx="6.04859" ry="5.54454" fill="#418D8C"/>
<ellipse cx="174.015" cy="5.54454" rx="6.04859" ry="5.54454" fill="#418D8C"/>
<ellipse cx="174.015" cy="39.9215" rx="6.04859" ry="5.54454" fill="#418D8C"/>
<ellipse cx="174.015" cy="74.2965" rx="6.04859" ry="5.54454" fill="#418D8C"/>
<ellipse cx="174.015" cy="108.673" rx="6.04859" ry="5.54454" fill="#418D8C"/>
<ellipse cx="174.015" cy="143.048" rx="6.04859" ry="5.54454" fill="#418D8C"/>
<ellipse cx="174.015" cy="177.425" rx="6.04859" ry="5.54454" fill="#418D8C"/>
<ellipse cx="174.015" cy="211.8" rx="6.04859" ry="5.54454" fill="#418D8C"/>
<ellipse cx="174.015" cy="246.177" rx="6.04859" ry="5.54454" fill="#418D8C"/>
</g>
</svg>
