<svg width="198" height="274" viewBox="0 0 198 274" fill="none" xmlns="http://www.w3.org/2000/svg">
<mask id="mask0" style="mask-type:alpha" maskUnits="userSpaceOnUse" x="-76" y="0" width="274" height="274">
<circle cx="61" cy="137" r="137" fill="white" fill-opacity="0.5"/>
</mask>
<g mask="url(#mask0)">
<circle cx="-4.12573" cy="6.00476" r="6.00476" fill="white" fill-opacity="0.5"/>
<circle cx="-4.12573" cy="43.2343" r="6.00476" fill="white" fill-opacity="0.5"/>
<circle cx="-4.12573" cy="80.4637" r="6.00476" fill="white" fill-opacity="0.5"/>
<circle cx="-4.12573" cy="117.693" r="6.00476" fill="white" fill-opacity="0.5"/>
<circle cx="-4.12573" cy="154.923" r="6.00476" fill="white" fill-opacity="0.5"/>
<circle cx="-4.12573" cy="192.152" r="6.00476" fill="white" fill-opacity="0.5"/>
<circle cx="-4.12573" cy="229.382" r="6.00476" fill="white" fill-opacity="0.5"/>
<circle cx="-4.12573" cy="266.611" r="6.00476" fill="white" fill-opacity="0.5"/>
<circle cx="29.5009" cy="6.00476" r="6.00476" fill="white" fill-opacity="0.5"/>
<circle cx="29.5009" cy="43.2343" r="6.00476" fill="white" fill-opacity="0.5"/>
<circle cx="29.5009" cy="80.4637" r="6.00476" fill="white" fill-opacity="0.5"/>
<circle cx="29.5009" cy="117.693" r="6.00476" fill="white" fill-opacity="0.5"/>
<circle cx="29.5009" cy="154.923" r="6.00476" fill="white" fill-opacity="0.5"/>
<circle cx="29.5009" cy="192.152" r="6.00476" fill="white" fill-opacity="0.5"/>
<circle cx="29.5009" cy="229.382" r="6.00476" fill="white" fill-opacity="0.5"/>
<circle cx="29.5009" cy="266.611" r="6.00476" fill="white" fill-opacity="0.5"/>
<circle cx="63.1276" cy="6.00476" r="6.00476" fill="white" fill-opacity="0.5"/>
<circle cx="63.1276" cy="43.2343" r="6.00476" fill="white" fill-opacity="0.5"/>
<circle cx="63.1276" cy="80.4637" r="6.00476" fill="white" fill-opacity="0.5"/>
<circle cx="63.1276" cy="117.693" r="6.00476" fill="white" fill-opacity="0.5"/>
<circle cx="63.1276" cy="154.923" r="6.00476" fill="white" fill-opacity="0.5"/>
<circle cx="63.1276" cy="192.152" r="6.00476" fill="white" fill-opacity="0.5"/>
<circle cx="63.1276" cy="229.382" r="6.00476" fill="white" fill-opacity="0.5"/>
<circle cx="63.1276" cy="266.611" r="6.00476" fill="white" fill-opacity="0.5"/>
<circle cx="96.7543" cy="6.00476" r="6.00476" fill="white" fill-opacity="0.5"/>
<circle cx="96.7543" cy="43.2343" r="6.00476" fill="white" fill-opacity="0.5"/>
<circle cx="96.7543" cy="80.4637" r="6.00476" fill="white" fill-opacity="0.5"/>
<circle cx="96.7543" cy="117.693" r="6.00476" fill="white" fill-opacity="0.5"/>
<circle cx="96.7543" cy="154.923" r="6.00476" fill="white" fill-opacity="0.5"/>
<circle cx="96.7543" cy="192.152" r="6.00476" fill="white" fill-opacity="0.5"/>
<circle cx="96.7543" cy="229.382" r="6.00476" fill="white" fill-opacity="0.5"/>
<circle cx="96.7543" cy="266.611" r="6.00476" fill="white" fill-opacity="0.5"/>
<circle cx="130.381" cy="6.00476" r="6.00476" fill="white" fill-opacity="0.5"/>
<circle cx="130.381" cy="43.2343" r="6.00476" fill="white" fill-opacity="0.5"/>
<circle cx="130.381" cy="80.4637" r="6.00476" fill="white" fill-opacity="0.5"/>
<circle cx="130.381" cy="117.693" r="6.00476" fill="white" fill-opacity="0.5"/>
<circle cx="130.381" cy="154.923" r="6.00476" fill="white" fill-opacity="0.5"/>
<circle cx="130.381" cy="192.152" r="6.00476" fill="white" fill-opacity="0.5"/>
<circle cx="130.381" cy="229.382" r="6.00476" fill="white" fill-opacity="0.5"/>
<circle cx="130.381" cy="266.611" r="6.00476" fill="white" fill-opacity="0.5"/>
<circle cx="164.008" cy="6.00476" r="6.00476" fill="white" fill-opacity="0.5"/>
<circle cx="164.008" cy="43.2343" r="6.00476" fill="white" fill-opacity="0.5"/>
<circle cx="164.008" cy="80.4637" r="6.00476" fill="white" fill-opacity="0.5"/>
<circle cx="164.008" cy="117.693" r="6.00476" fill="white" fill-opacity="0.5"/>
<circle cx="164.008" cy="154.923" r="6.00476" fill="white" fill-opacity="0.5"/>
<circle cx="164.008" cy="192.152" r="6.00476" fill="white" fill-opacity="0.5"/>
<circle cx="164.008" cy="229.382" r="6.00476" fill="white" fill-opacity="0.5"/>
<circle cx="164.008" cy="266.611" r="6.00476" fill="white" fill-opacity="0.5"/>
<circle cx="197.634" cy="6.00476" r="6.00476" fill="white" fill-opacity="0.5"/>
<circle cx="197.634" cy="43.2343" r="6.00476" fill="white" fill-opacity="0.5"/>
<circle cx="197.634" cy="80.4637" r="6.00476" fill="white" fill-opacity="0.5"/>
<circle cx="197.634" cy="117.693" r="6.00476" fill="white" fill-opacity="0.5"/>
<circle cx="197.634" cy="154.923" r="6.00476" fill="white" fill-opacity="0.5"/>
<circle cx="197.634" cy="192.152" r="6.00476" fill="white" fill-opacity="0.5"/>
<circle cx="197.634" cy="229.382" r="6.00476" fill="white" fill-opacity="0.5"/>
<circle cx="197.634" cy="266.611" r="6.00476" fill="white" fill-opacity="0.5"/>
</g>
</svg>
