<svg width="221" height="274" viewBox="0 0 221 274" fill="none" xmlns="http://www.w3.org/2000/svg">
<mask id="mask0" style="mask-type:alpha" maskUnits="userSpaceOnUse" x="0" y="0" width="274" height="274">
<circle cx="137" cy="137" r="137" fill="white" fill-opacity="0.5"/>
</mask>
<g mask="url(#mask0)">
<circle cx="4.62097" cy="6.00476" r="6.00476" fill="white" fill-opacity="0.5"/>
<circle cx="4.62097" cy="43.2343" r="6.00476" fill="white" fill-opacity="0.5"/>
<circle cx="4.62097" cy="80.4637" r="6.00476" fill="white" fill-opacity="0.5"/>
<circle cx="4.62097" cy="117.693" r="6.00476" fill="white" fill-opacity="0.5"/>
<circle cx="4.62097" cy="154.923" r="6.00476" fill="white" fill-opacity="0.5"/>
<circle cx="4.62097" cy="192.152" r="6.00476" fill="white" fill-opacity="0.5"/>
<circle cx="4.62097" cy="229.382" r="6.00476" fill="white" fill-opacity="0.5"/>
<circle cx="4.62097" cy="266.611" r="6.00476" fill="white" fill-opacity="0.5"/>
<circle cx="38.2477" cy="6.00476" r="6.00476" fill="white" fill-opacity="0.5"/>
<circle cx="38.2477" cy="43.2343" r="6.00476" fill="white" fill-opacity="0.5"/>
<circle cx="38.2477" cy="80.4637" r="6.00476" fill="white" fill-opacity="0.5"/>
<circle cx="38.2477" cy="117.693" r="6.00476" fill="white" fill-opacity="0.5"/>
<circle cx="38.2477" cy="154.923" r="6.00476" fill="white" fill-opacity="0.5"/>
<circle cx="38.2477" cy="192.152" r="6.00476" fill="white" fill-opacity="0.5"/>
<circle cx="38.2477" cy="229.382" r="6.00476" fill="white" fill-opacity="0.5"/>
<circle cx="38.2477" cy="266.611" r="6.00476" fill="white" fill-opacity="0.5"/>
<circle cx="71.8743" cy="6.00476" r="6.00476" fill="white" fill-opacity="0.5"/>
<circle cx="71.8743" cy="43.2343" r="6.00476" fill="white" fill-opacity="0.5"/>
<circle cx="71.8743" cy="80.4637" r="6.00476" fill="white" fill-opacity="0.5"/>
<circle cx="71.8743" cy="117.693" r="6.00476" fill="white" fill-opacity="0.5"/>
<circle cx="71.8743" cy="154.923" r="6.00476" fill="white" fill-opacity="0.5"/>
<circle cx="71.8743" cy="192.152" r="6.00476" fill="white" fill-opacity="0.5"/>
<circle cx="71.8743" cy="229.382" r="6.00476" fill="white" fill-opacity="0.5"/>
<circle cx="71.8743" cy="266.611" r="6.00476" fill="white" fill-opacity="0.5"/>
<circle cx="105.501" cy="6.00476" r="6.00476" fill="white" fill-opacity="0.5"/>
<circle cx="105.501" cy="43.2343" r="6.00476" fill="white" fill-opacity="0.5"/>
<circle cx="105.501" cy="80.4637" r="6.00476" fill="white" fill-opacity="0.5"/>
<circle cx="105.501" cy="117.693" r="6.00476" fill="white" fill-opacity="0.5"/>
<circle cx="105.501" cy="154.923" r="6.00476" fill="white" fill-opacity="0.5"/>
<circle cx="105.501" cy="192.152" r="6.00476" fill="white" fill-opacity="0.5"/>
<circle cx="105.501" cy="229.382" r="6.00476" fill="white" fill-opacity="0.5"/>
<circle cx="105.501" cy="266.611" r="6.00476" fill="white" fill-opacity="0.5"/>
<circle cx="139.128" cy="6.00476" r="6.00476" fill="white" fill-opacity="0.5"/>
<circle cx="139.128" cy="43.2343" r="6.00476" fill="white" fill-opacity="0.5"/>
<circle cx="139.128" cy="80.4637" r="6.00476" fill="white" fill-opacity="0.5"/>
<circle cx="139.128" cy="117.693" r="6.00476" fill="white" fill-opacity="0.5"/>
<circle cx="139.128" cy="154.923" r="6.00476" fill="white" fill-opacity="0.5"/>
<circle cx="139.128" cy="192.152" r="6.00476" fill="white" fill-opacity="0.5"/>
<circle cx="139.128" cy="229.382" r="6.00476" fill="white" fill-opacity="0.5"/>
<circle cx="139.128" cy="266.611" r="6.00476" fill="white" fill-opacity="0.5"/>
<circle cx="172.754" cy="6.00476" r="6.00476" fill="white" fill-opacity="0.5"/>
<circle cx="172.754" cy="43.2343" r="6.00476" fill="white" fill-opacity="0.5"/>
<circle cx="172.754" cy="80.4637" r="6.00476" fill="white" fill-opacity="0.5"/>
<circle cx="172.754" cy="117.693" r="6.00476" fill="white" fill-opacity="0.5"/>
<circle cx="172.754" cy="154.923" r="6.00476" fill="white" fill-opacity="0.5"/>
<circle cx="172.754" cy="192.152" r="6.00476" fill="white" fill-opacity="0.5"/>
<circle cx="172.754" cy="229.382" r="6.00476" fill="white" fill-opacity="0.5"/>
<circle cx="172.754" cy="266.611" r="6.00476" fill="white" fill-opacity="0.5"/>
<circle cx="206.381" cy="6.00476" r="6.00476" fill="white" fill-opacity="0.5"/>
<circle cx="206.381" cy="43.2343" r="6.00476" fill="white" fill-opacity="0.5"/>
<circle cx="206.381" cy="80.4637" r="6.00476" fill="white" fill-opacity="0.5"/>
<circle cx="206.381" cy="117.693" r="6.00476" fill="white" fill-opacity="0.5"/>
<circle cx="206.381" cy="154.923" r="6.00476" fill="white" fill-opacity="0.5"/>
<circle cx="206.381" cy="192.152" r="6.00476" fill="white" fill-opacity="0.5"/>
<circle cx="206.381" cy="229.382" r="6.00476" fill="white" fill-opacity="0.5"/>
<circle cx="206.381" cy="266.611" r="6.00476" fill="white" fill-opacity="0.5"/>
</g>
</svg>
