<svg width="459" height="366" viewBox="0 0 459 366" fill="none" xmlns="http://www.w3.org/2000/svg">
<ellipse cx="404.894" cy="67.2325" rx="157.927" ry="142.978" transform="rotate(38.1689 404.894 67.2325)" fill="#006665" fill-opacity="0.06"/>
<mask id="mask0" style="mask-type:alpha" maskUnits="userSpaceOnUse" x="258" y="-78" width="318" height="283">
<ellipse cx="417.002" cy="63.3716" rx="141.267" ry="158.015" transform="rotate(-90.4019 417.002 63.3716)" fill="#006665"/>
</mask>
<g mask="url(#mask0)">
<ellipse cx="266.874" cy="200.929" rx="6.19177" ry="6.92586" transform="rotate(-90.4019 266.874 200.929)" fill="#006665"/>
<ellipse cx="309.813" cy="200.627" rx="6.19177" ry="6.92586" transform="rotate(-90.4019 309.813 200.627)" fill="#006665"/>
<ellipse cx="352.753" cy="200.326" rx="6.19177" ry="6.92586" transform="rotate(-90.4019 352.753 200.326)" fill="#006665"/>
<ellipse cx="395.691" cy="200.024" rx="6.19177" ry="6.92586" transform="rotate(-90.4019 395.691 200.024)" fill="#006665"/>
<ellipse cx="438.631" cy="199.724" rx="6.19177" ry="6.92586" transform="rotate(-90.4019 438.631 199.724)" fill="#006665"/>
<ellipse cx="266.631" cy="166.255" rx="6.19177" ry="6.92586" transform="rotate(-90.4019 266.631 166.255)" fill="#006665"/>
<ellipse cx="309.57" cy="165.954" rx="6.19177" ry="6.92586" transform="rotate(-90.4019 309.57 165.954)" fill="#006665"/>
<ellipse cx="352.509" cy="165.652" rx="6.19177" ry="6.92586" transform="rotate(-90.4019 352.509 165.652)" fill="#006665"/>
<ellipse cx="395.448" cy="165.352" rx="6.19177" ry="6.92586" transform="rotate(-90.4019 395.448 165.352)" fill="#006665"/>
<ellipse cx="438.388" cy="165.05" rx="6.19177" ry="6.92586" transform="rotate(-90.4019 438.388 165.05)" fill="#006665"/>
<ellipse cx="266.388" cy="131.582" rx="6.19177" ry="6.92586" transform="rotate(-90.4019 266.388 131.582)" fill="#006665"/>
<ellipse cx="309.327" cy="131.281" rx="6.19177" ry="6.92586" transform="rotate(-90.4019 309.327 131.281)" fill="#006665"/>
<ellipse cx="352.266" cy="130.98" rx="6.19177" ry="6.92586" transform="rotate(-90.4019 352.266 130.98)" fill="#006665"/>
<ellipse cx="395.205" cy="130.679" rx="6.19177" ry="6.92586" transform="rotate(-90.4019 395.205 130.679)" fill="#006665"/>
<ellipse cx="438.144" cy="130.377" rx="6.19177" ry="6.92586" transform="rotate(-90.4019 438.144 130.377)" fill="#006665"/>
<ellipse cx="266.144" cy="96.9092" rx="6.19177" ry="6.92586" transform="rotate(-90.4019 266.144 96.9092)" fill="#006665"/>
<ellipse cx="309.084" cy="96.6084" rx="6.19177" ry="6.92586" transform="rotate(-90.4019 309.084 96.6084)" fill="#006665"/>
<ellipse cx="352.023" cy="96.3067" rx="6.19177" ry="6.92586" transform="rotate(-90.4019 352.023 96.3067)" fill="#006665"/>
<ellipse cx="394.961" cy="96.0049" rx="6.19177" ry="6.92586" transform="rotate(-90.4019 394.961 96.0049)" fill="#006665"/>
<ellipse cx="437.901" cy="95.7051" rx="6.19177" ry="6.92586" transform="rotate(-90.4019 437.901 95.7051)" fill="#006665"/>
<ellipse cx="265.901" cy="62.2364" rx="6.19177" ry="6.92586" transform="rotate(-90.4019 265.901 62.2364)" fill="#006665"/>
<ellipse cx="308.84" cy="61.9346" rx="6.19177" ry="6.92586" transform="rotate(-90.4019 308.84 61.9346)" fill="#006665"/>
<ellipse cx="351.78" cy="61.6328" rx="6.19177" ry="6.92586" transform="rotate(-90.4019 351.78 61.6328)" fill="#006665"/>
<ellipse cx="394.718" cy="61.333" rx="6.19177" ry="6.92586" transform="rotate(-90.4019 394.718 61.333)" fill="#006665"/>
<ellipse cx="437.658" cy="61.0313" rx="6.19177" ry="6.92586" transform="rotate(-90.4019 437.658 61.0313)" fill="#006665"/>
<ellipse cx="265.658" cy="27.5625" rx="6.19177" ry="6.92586" transform="rotate(-90.4019 265.658 27.5625)" fill="#006665"/>
<ellipse cx="308.597" cy="27.2608" rx="6.19177" ry="6.92586" transform="rotate(-90.4019 308.597 27.2608)" fill="#006665"/>
<ellipse cx="351.537" cy="26.961" rx="6.19177" ry="6.92586" transform="rotate(-90.4019 351.537 26.961)" fill="#006665"/>
<ellipse cx="394.475" cy="26.6592" rx="6.19177" ry="6.92586" transform="rotate(-90.4019 394.475 26.6592)" fill="#006665"/>
<ellipse cx="437.415" cy="26.3584" rx="6.19177" ry="6.92586" transform="rotate(-90.4019 437.415 26.3584)" fill="#006665"/>
</g>
<rect x="0.77872" y="204.413" width="61.7785" height="55.8083" fill="white" stroke="#006665" stroke-width="1.55744"/>
<rect x="29.245" y="196.114" width="52.6409" height="76.594" fill="white" stroke="#EFDBCD" stroke-width="2.22819"/>
<rect x="108.5" y="40" width="94.5" height="137.5" fill="white" stroke="#EFDBCD" stroke-width="4"/>
<rect x="57.5" y="55" width="119" height="107.5" fill="white" stroke="#006665" stroke-width="3"/>
</svg>
